<svg xmlns="http://www.w3.org/2000/svg" aria-hidden="true" style="width:0;height:0;position:absolute;overflow:hidden"><defs><symbol id="arrow-down" viewBox="0 0 32 32"><path fill="#4f2ee8" d="M15.053 17.868a1.329 1.329 0 0 0 1.892 0l6.108-6.121a1.333 1.333 0 1 1 1.892 1.879l-6.119 6.121c-.724.723-1.723 1.17-2.827 1.17s-2.103-.447-2.827-1.17l-6.118-6.121a1.334 1.334 0 0 1 1.892-1.879l-.001-.001 6.108 6.119z" style="fill:var(--color1,#4f2ee8)"/></symbol><symbol id="arrow-left" viewBox="0 0 32 32"><path d="M14.133 16.947a1.333 1.333 0 0 1 0-1.894l6.12-6.107a1.335 1.335 0 1 0-1.879-1.894l-.001.001-6.12 6.12c-.723.724-1.17 1.723-1.17 2.827s.447 2.103 1.17 2.827l6.12 6.12a1.334 1.334 0 1 0 1.88-1.894l-6.12-6.107z"/></symbol><symbol id="arrow-narrow" viewBox="0 0 32 32"><path fill="none" stroke="#eac645" stroke-linecap="round" stroke-linejoin="round" stroke-width="3.2" d="M5.333 16h21.334m0 0-8-8m8 8-8 8" style="stroke:var(--color3,#eac645)"/></symbol><symbol id="arrow-right" viewBox="0 0 32 32"><path d="M17.867 16.947a1.333 1.333 0 0 0 0-1.894l-6.12-6.107a1.333 1.333 0 0 1 .94-2.281c.367 0 .699.148.94.388l6.12 6.12c.723.724 1.17 1.723 1.17 2.827s-.447 2.103-1.17 2.827l-6.12 6.12a1.334 1.334 0 1 1-1.88-1.894l6.12-6.107z"/></symbol><symbol id="arrow-up" viewBox="0 0 32 32"><path fill="#fff" d="M4.5 19.6 15.7 8.367c.133-.133.277-.227.433-.283.146-.053.314-.084.489-.084h.011-.001c.177 0 .344.028.5.084.17.064.315.16.433.282L28.799 19.6c.311.311.467.7.467 1.167s-.167.867-.5 1.2c-.292.308-.705.5-1.162.5h-.01c-.457 0-.87-.192-1.161-.499l-.001-.001-9.8-9.8-9.8 9.8c-.311.311-.693.467-1.149.467s-.851-.167-1.184-.5a1.597 1.597 0 0 1-.5-1.162v-.01c0-.457.192-.87.499-1.161l.001-.001z" style="fill:var(--color4,#fff)"/></symbol><symbol id="bag" viewBox="0 0 32 32"><path d="M25.333 9.333h-4V8a5.333 5.333 0 0 0-10.666 0v1.333H6.665c-.736 0-1.333.597-1.333 1.333v14.668a4 4 0 0 0 4 4h13.334a4 4 0 0 0 4-4V10.666c0-.736-.597-1.333-1.333-1.333h-.002zM13.333 8a2.667 2.667 0 1 1 5.334 0v1.333h-5.334V8zM24 25.333v.002c0 .736-.597 1.333-1.333 1.333H9.333A1.333 1.333 0 0 1 8 25.335V12h2.667v1.333a1.333 1.333 0 0 0 2.666 0V12h5.334v1.333a1.336 1.336 0 0 0 2.666.003V12H24v13.333z"/></symbol><symbol id="burger" viewBox="0 0 32 32"><path stroke-linecap="round" stroke-linejoin="round" stroke-width="2.286" d="M22.666 13.334H4M28 8H4m24 10.666H4M22.666 24H4"/></symbol><symbol id="caret-down" viewBox="0 0 28 32"><path fill="#fff" d="M5.898 12H22.41l-7.422 8.39a1.112 1.112 0 0 1-.834.391h-.001a1.111 1.111 0 0 1-.833-.39l-.001-.002-7.422-8.39z" style="fill:var(--color4,#fff)"/></symbol><symbol id="gerb" viewBox="0 0 20 32"><path fill="#fff" d="M9.005 30.888A8.656 8.656 0 0 1 5.6 25.592l-.009-.055H0V2.42c2.991 1.443 5.153 4.6 5.388 7.876l.845 6.493-.407-.045c-.893 0-1.676.812-1.676 1.608 0 .752.595 1.383 1.379 1.548l1.018.226c1.675-3.051 2.63-6.042 2.63-8.973 0-2.646-.36-5.291-.422-7.997 0-1.202.485-2.3 1.253-3.156.783.857 1.253 1.954 1.253 3.156 0 2.706-.423 5.351-.423 7.997 0 2.93.955 5.922 2.631 8.973l1.018-.226c.783-.165 1.378-.811 1.378-1.548 0-.811-.783-1.608-1.675-1.608l-.423.06.845-6.493C15.035 7.034 17.01 3.863 20 2.435v23.117h-5.576c-.422 2.18-1.613 4.148-3.414 5.35-.423.286-.783.632-1.018 1.098-.22-.466-.58-.812-.987-1.112zM2.647 17.556c.235-.857.893-1.609 1.738-2.075l-.658-5.35a8.283 8.283 0 0 0-2.043-4.382l.007.008V17.54h.956v.015zm2.819 6.373c0-.812.125-1.548.298-2.3l-.784-.18c-1.143-.346-2.036-1.203-2.333-2.3H1.69v4.78h3.775zm3.712 0c0-.977-.783-1.834-1.801-1.954-.173.63-.298 1.262-.298 1.954h2.099zm0 1.623H7.314c.298 1.262.955 2.42 1.864 3.397v-3.397zm2.63-5.005c-.72-1.263-1.377-2.585-1.8-3.968-.423 1.383-1.08 2.705-1.801 3.968.72.165 1.315.631 1.8 1.157.486-.526 1.082-.992 1.802-1.157zm1.144 3.382c0-.692-.125-1.323-.297-1.954-1.018.12-1.801.977-1.801 1.954h2.098zm-.235 1.623h-1.863v3.397c.908-.992 1.566-2.135 1.863-3.397zm5.623-1.623v-4.78h-.956c-.297 1.097-1.206 1.954-2.333 2.3l-.783.18c.172.752.297 1.488.297 2.3h3.775zm0-6.373v-11.8c-1.08 1.203-1.864 2.706-2.036 4.375l-.658 5.35c.846.466 1.504 1.203 1.738 2.075h.956z" style="fill:var(--color4,#fff)"/></symbol><symbol id="lock" viewBox="0 0 32 32"><path stroke-linecap="round" stroke-linejoin="round" stroke-width="2.286" d="M22.666 14.666v-4a6.666 6.666 0 0 0-13.332 0v4M10.4 28h11.2c2.24 0 3.36 0 4.216-.435a4.03 4.03 0 0 0 1.738-1.726l.011-.022c.435-.856.435-1.976.435-4.216v-.534c0-2.24 0-3.36-.435-4.216a4.03 4.03 0 0 0-1.726-1.738l-.022-.011c-.856-.434-1.976-.434-4.216-.434h-11.2c-2.24 0-3.36 0-4.216.434a4.03 4.03 0 0 0-1.738 1.726l-.011.022c-.435.857-.435 1.977-.435 4.217v.533c0 2.24 0 3.36.435 4.216a4.03 4.03 0 0 0 1.726 1.738l.022.011C7.04 28 8.16 28 10.4 28z"/></symbol><symbol id="logo" viewBox="0 0 32 32"><path fill="#f6f6f6" d="m0 0 16.343 16.172L32 32V0H0z" style="fill:var(--color5,#f6f6f6)"/><path fill="#f6f6f6" d="M4.457 4.228 16.4 16.057l11.257 11.485h-23.2V4.227z" style="fill:var(--color5,#f6f6f6)"/><path fill="#4f2ee8" d="M27.733 27.619 15.789 15.79 4.533 4.305h23.2V27.62z" style="fill:var(--color1,#4f2ee8)"/><path fill="#4f2ee8" d="m9.257 9.028 13.6 13.601h-13.6v-13.6z" style="fill:var(--color1,#4f2ee8)"/><path fill="#f6f6f6" d="m9.257 9.028 13.6 13.601v-13.6h-13.6z" style="fill:var(--color5,#f6f6f6)"/></symbol><symbol id="mail" viewBox="0 0 32 32"><path stroke-linecap="round" stroke-linejoin="round" stroke-width="2.286" d="m28.667 24-8.857-8m-7.619 0-8.857 8M2.667 9.334l10.886 7.621c.882.617 1.322.926 1.802 1.045.423.106.866.106 1.29 0 .479-.119.92-.427 1.801-1.045l10.887-7.621M9.066 26.666h13.867c2.24 0 3.36 0 4.216-.435a4.03 4.03 0 0 0 1.738-1.726l.011-.022c.434-.855.434-1.976.434-4.216v-8.533c0-2.24 0-3.36-.434-4.217a4.027 4.027 0 0 0-1.726-1.737l-.022-.011c-.856-.435-1.976-.435-4.217-.435H9.069c-2.24 0-3.36 0-4.217.435a4.027 4.027 0 0 0-1.737 1.726l-.01.022c-.435.855-.435 1.975-.435 4.216v8.533c0 2.24 0 3.36.435 4.217a4.027 4.027 0 0 0 1.726 1.737l.022.011c.855.435 1.975.435 4.216.435z"/></symbol><symbol id="plug-big" viewBox="0 0 35 32"><path fill="#4f2ee8" d="M34.352 7.713a15.87 15.87 0 0 0-2.235-.966L32 6.712v19.742a16.089 16.089 0 0 0-5.6-1.017c-3.04 0-6.048.886-8.8 2.593V8.173c-2.592-1.526-5.584-2.429-8.8-2.429-2.864 0-5.568.722-7.952 1.969C.32 7.977 0 8.55 0 9.157v19.824a1.6 1.6 0 0 0 1.6 1.624c.256 0 .512-.065.768-.197 1.936-1.034 4.112-1.69 6.432-1.69 3.312 0 6.368 1.346 8.8 3.282 2.432-1.936 5.488-3.282 8.8-3.282 2.32 0 4.496.656 6.432 1.706.256.132.512.197.768.197.832 0 1.6-.673 1.6-1.625V9.156c0-.607-.32-1.181-.848-1.444zM14.4 26.453c-1.824-.673-3.696-1.017-5.6-1.017s-3.776.344-5.6 1.017V10.191c1.643-.736 3.561-1.165 5.578-1.165h.023H8.8c1.92 0 3.824.41 5.6 1.182v16.246zM28.8 0l-8 8.205v15.59l8-7.384V.001z" style="fill:var(--color1,#4f2ee8)"/></symbol><symbol id="plug-medium" viewBox="0 0 36 32"><path fill="#4f2ee8" d="M34.699 7.713a15.966 15.966 0 0 0-2.257-.965l-.119-.035v19.742a16.394 16.394 0 0 0-5.656-1.017c-3.071 0-6.11.886-8.889 2.593V8.175c-2.618-1.527-5.64-2.429-8.889-2.429-2.893 0-5.624.722-8.033 1.969C.323 7.979 0 8.552 0 9.159v19.84c0 .888.72 1.608 1.608 1.608h.008c.259 0 .517-.065.776-.197 1.956-1.034 4.153-1.69 6.497-1.69 3.345 0 6.433 1.345 8.889 3.282 2.456-1.937 5.544-3.282 8.889-3.282 2.344 0 4.542.656 6.497 1.707.258.131.517.197.776.197a1.618 1.618 0 0 0 1.616-1.618V9.158c0-.607-.323-1.181-.857-1.444zm-20.154 18.74c-1.842-.673-3.733-1.017-5.656-1.017s-3.814.345-5.656 1.017V10.19c1.66-.737 3.597-1.166 5.634-1.166h.023-.001c1.94 0 3.863.41 5.657 1.182v16.247zM29.091 0 21.01 8.205v15.59l8.08-7.385V0z" style="fill:var(--color1,#4f2ee8)"/></symbol><symbol id="plug-small" viewBox="0 0 34 32"><path fill="#4f2ee8" d="M33.312 7.712c-.636-.35-1.39-.688-2.171-.966l-.111-.035v19.742c-1.61-.64-3.475-1.013-5.427-1.018h-.002c-2.948 0-5.865.885-8.533 2.592V8.173c-2.513-1.526-5.414-2.429-8.533-2.429-2.778 0-5.399.722-7.712 1.969-.512.262-.821.836-.821 1.444V28.98c0 .951.73 1.625 1.552 1.625.247 0 .496-.065.745-.196 1.877-1.035 3.987-1.691 6.237-1.691 3.211 0 6.176 1.346 8.533 3.282 2.357-1.936 5.323-3.282 8.533-3.282 2.251 0 4.359.657 6.237 1.707.249.131.497.197.745.197.807 0 1.552-.673 1.552-1.625V9.157c0-.608-.309-1.182-.821-1.444zM13.963 26.453c-1.61-.64-3.475-1.013-5.427-1.018h-.002c-1.845 0-3.662.345-5.429 1.018V10.191c1.591-.736 3.452-1.165 5.414-1.165h.016-.001c1.861 0 3.708.41 5.429 1.181v16.246zM27.929 0l-7.758 8.205v15.59l7.758-7.385V-.001z" style="fill:var(--color1,#4f2ee8)"/></symbol><symbol id="trash-bin" viewBox="0 0 32 32"><path fill="none" stroke="#fff" stroke-linecap="round" stroke-linejoin="round" stroke-width="2.909" d="M12 4h8M4 8h24m-2.666 0-.935 14.026c-.141 2.103-.211 3.156-.665 3.953a4.031 4.031 0 0 1-1.707 1.61l-.023.01c-.828.4-1.881.4-3.99.4h-4.026c-2.109 0-3.162 0-3.99-.4a4.028 4.028 0 0 1-1.721-1.601l-.01-.019c-.454-.797-.524-1.85-.665-3.953L6.667 8m6.667 6v6.666M18.666 14v6.666" style="stroke:var(--color4,#fff)"/></symbol><symbol id="user" viewBox="0 0 32 32"><path fill="#f6f6f6" style="fill:var(--color1,#f6f6f6)" d="M32 16c0 8.837-7.163 16-16 16S0 24.837 0 16 7.163 0 16 0s16 7.163 16 16z"/><path fill="#4f2ee8" style="fill:var(--color2,#4f2ee8)" d="M10.522 22.847a5.477 5.477 0 1 1 10.954 0H10.521zM16 16.685c-2.27 0-4.108-1.838-4.108-4.108S13.73 8.469 16 8.469c2.27 0 4.108 1.838 4.108 4.108S18.27 16.685 16 16.685z"/></symbol><symbol id="x-close" viewBox="0 0 32 32"><path stroke-linecap="round" stroke-linejoin="round" stroke-width="3.429" d="M24 8 8 24M8 8l16 16"/></symbol><symbol id="moon" viewBox="0 0 32 32"><path d="M30.709 17.479a14.947 14.947 0 0 1-9.172 12.238l-.099.036c-1.606.645-3.468 1.02-5.417 1.02a14.84 14.84 0 0 1-9.723-3.61l.019.016C1.876 23.33.114 17.024 1.933 11.43 3.79 5.936 8.616 1.93 14.454 1.296l.066-.006c-3.239 4.251-3.093 10.37.366 14.459 3.929 4.629 10.994 5.406 15.822 1.728z"/></symbol><symbol id="sun" viewBox="0 0 32 32"><path d="M16 25.333a9.333 9.333 0 1 0 0-18.666 9.333 9.333 0 1 0 0 18.666zM16 6a.667.667 0 0 0 .667-.667V2a.667.667 0 1 0-1.334 0v3.333c0 .368.298.667.667.667zm0 20a.667.667 0 0 0-.667.667V30a.667.667 0 1 0 1.334 0v-3.333A.667.667 0 0 0 16 26zM6 16a.667.667 0 0 0-.667-.667H2a.667.667 0 1 0 0 1.334h3.333A.667.667 0 0 0 6 16zm24-.667h-3.333a.667.667 0 1 0 0 1.334H30a.667.667 0 1 0 0-1.334zM8 8.926a.736.736 0 0 0 .941-.001l-.001.001a.665.665 0 0 0 0-.94L6.572 5.627a.67.67 0 1 0-.946.944l.001.001L8 8.926z"/><path d="M24 23.074a.665.665 0 1 0-.929.923l.002.001 2.352 2.361c.12.121.287.196.471.196h.004a.668.668 0 0 0 .472-1.141l-2.373-2.34zm0-14.148 2.359-2.354a.667.667 0 0 0-.472-1.141.664.664 0 0 0-.472.196L23.075 8a.665.665 0 1 0 .923.929l.001-.002zM8 23.074l-2.373 2.352a.666.666 0 0 0 .213 1.091l.004.002a.663.663 0 0 0 .728-.146L8.926 24a.668.668 0 1 0-.925-.929L8 23.073z"/></symbol><symbol id="icon-double-small-left" viewBox="0 0 32 32"><path fill="#FFF" style="fill:var(--color1,#fff)" d="M13.973 25.333a1.329 1.329 0 0 1-.933-.387l-6.12-6.12c-.723-.724-1.17-1.723-1.17-2.827s.447-2.103 1.17-2.827l6.12-6.12a1.334 1.334 0 1 1 1.88 1.894L8.8 15.053c-.244.242-.395.576-.395.947s.151.705.395.947l6.12 6.107a1.326 1.326 0 0 1 .288 1.469l.003-.009c-.206.486-.678.82-1.229.82h-.01.001z"/><path fill="#FFF" style="fill:var(--color1,#fff)" d="M23.307 25.333a1.329 1.329 0 0 1-.933-.387l-8-8a1.328 1.328 0 0 1-.001-1.894l8-8a1.334 1.334 0 1 1 1.88 1.894L17.2 15.999l7.053 7.053a1.328 1.328 0 0 1 .001 1.894 1.33 1.33 0 0 1-.939.387h-.008z"/></symbol><symbol id="icon-double-small-right" viewBox="0 0 32 32"><path style="fill:var(--color1,#000)" d="M17.467 25.333a1.333 1.333 0 0 1-.934-2.28l6.133-6.107a1.333 1.333 0 0 0 0-1.894l-6.133-6.107a1.328 1.328 0 0 1-.001-1.894c.241-.24.573-.388.94-.388s.699.148.94.388l6.12 6.12c.723.724 1.17 1.723 1.17 2.827s-.447 2.103-1.17 2.827l-6.12 6.12a1.33 1.33 0 0 1-.939.387h-.008z"/><path style="fill:var(--color1,#000)" d="M8.133 25.333a1.333 1.333 0 0 1-.934-2.28L14.252 16 7.199 8.947a1.333 1.333 0 0 1 .94-2.281c.367 0 .699.148.94.388l8 8a1.333 1.333 0 0 1 0 1.894l-8 8a1.33 1.33 0 0 1-.939.387h-.008z"/></symbol><symbol id="icon-small-left" viewBox="0 0 32 32"><path fill="#FFF" style="fill:var(--color1,#fff)" d="M14.133 16.947a1.333 1.333 0 0 1 0-1.894l6.12-6.107a1.333 1.333 0 0 0-.94-2.281c-.367 0-.699.148-.94.388l-6.12 6.12c-.723.724-1.17 1.723-1.17 2.827s.447 2.103 1.17 2.827l6.12 6.12a1.334 1.334 0 1 0 1.88-1.894l-6.12-6.107z"/></symbol><symbol id="icon-small-right" viewBox="0 0 32 32"><path style="fill:var(--color1,#000)" d="m20.533 13.173-6.12-6.12a1.334 1.334 0 1 0-1.88 1.894l6.133 6.107a1.326 1.326 0 0 1 .288 1.469l.003-.009a1.335 1.335 0 0 1-.293.433l-6.133 6.107a1.333 1.333 0 0 0 .94 2.281c.367 0 .699-.148.94-.387l6.12-6.12c.723-.724 1.17-1.723 1.17-2.827s-.447-2.103-1.17-2.827z"/></symbol><symbol id="icon-trash" viewBox="0 0 32 32"><path fill="none" stroke="#fff" style="stroke:var(--color1,#fff)" stroke-linejoin="round" stroke-linecap="round" stroke-width="2" d="M12 4h8M4 8h24m-2.667 0-.935 14.026c-.14 2.104-.21 3.156-.665 3.954a4.007 4.007 0 0 1-1.731 1.62c-.826.4-1.881.4-3.99.4h-4.025c-2.109 0-3.163 0-3.99-.4a4.001 4.001 0 0 1-1.731-1.62c-.455-.798-.525-1.85-.665-3.954L6.666 8m6.667 6v6.667M18.667 14v6.667"/></symbol><symbol id="burger-menu" viewBox="0 0 32 32"><path d="M19.833 11.667H3.5M24.5 7h-21m21 9.333h-21M19.833 21H3.5" stroke-width="2" stroke-linecap="round" stroke-linejoin="round"/></symbol></defs></svg>